<svg version="1.1" id="Layer_1" xmlns="http://www.w3.org/2000/svg"  x="0px" y="0px"
	 viewBox="0 0 633 687.2" style="enable-background:new 0 0 633 687.2;" xml:space="preserve">
<style type="text/css">
	.st0{fill:#D1D5DB;}
	.st1{fill:none;stroke:#D1D5DB;stroke-width:6;stroke-linecap:round;stroke-linejoin:round;stroke-miterlimit:10;}
	.st2{fill:none;stroke:#D1D5DB;stroke-width:5.9998;stroke-linecap:round;stroke-linejoin:round;stroke-miterlimit:9.9996;}
	.st3{fill:none;stroke:#D1D5DB;stroke-width:3;stroke-linecap:round;stroke-linejoin:round;stroke-miterlimit:10;}
	.st4{fill:none;stroke:#D1D5DB;stroke-width:4;stroke-linecap:round;stroke-linejoin:round;stroke-miterlimit:10;}
</style>
<g>
	<path class="st0" d="M306.2,267c-7.3-16.9-29.3-24.8-55.3-22.2c-0.6,1.9-1.3,3.9-1.9,6c-10,32-18.9,76.7-21.7,98.6
		c8.6-1.6,17.6-4.2,26.5-8.1C293.1,324.4,316.6,291.1,306.2,267z M282.7,294c-2.8,0-5-2.9-5-6.5s2.2-6.5,5-6.5s5,2.9,5,6.5
		S285.5,294,282.7,294z"/>
	<path class="st1" d="M270.6,448.6c-17.3,2.7-42.5,52.6-48.8,90.6c-5.5,33.1-3.9,63.5,4.1,83.5C232,590.6,255.6,493.2,270.6,448.6z"
		/>
	<path class="st1" d="M377.6,621.4c7.6-20,9-49.8,3.6-82.2c-6.2-37.3-30.7-86.3-47.9-90.4C348.1,492.9,371.1,588,377.6,621.4z"/>
	<path id="XMLID_64_" class="st0" d="M337.6,462.5c-2.5-0.7-4.9-1.1-7-1.1c-12.2,0-21.9,6.5-21.9,21.5c0,15.1,21.9,33,34.1,33
		c3.3,0,6.4-0.9,9.2-2.5C347.1,495,342.1,477.2,337.6,462.5z"/>
	<path id="XMLID_58_" class="st0" d="M245.1,592.1c13.5,0,24.5-13.3,24.5-29.7c0-15.7-10.1-28.6-22.9-29.6c-5,19.6-9.7,39-13.5,55.5
		C236.8,590.7,240.8,592.1,245.1,592.1z"/>
	<path id="XMLID_14_" class="st1" d="M358.1,387.1c-11.2,16.3-35.7,27.3-61.8,27.3c-24.2,0-38.7-14.2-47.2-31.9"/>
	<ellipse id="XMLID_7_" class="st0" cx="301.8" cy="377" rx="23.7" ry="12.2"/>
	<path id="XMLID_19_" class="st1" d="M431.9,677.9c-15.2-14.3-44.4-21.4-72.9-19.2c-24.4,1.8-42.5,10.1-49.6,21.1
		c-1.2,1.9,0.3,4.4,2.6,4.4h115.5C432,684.2,434.7,680.5,431.9,677.9z"/>
	<line id="XMLID_8_" class="st1" x1="369.4" y1="673" x2="369.4" y2="684"/>
	<path id="XMLID_24_" class="st1" d="M175,677.9c15.2-14.3,44.4-21.4,72.9-19.2c24.4,1.8,42.5,10.1,49.6,21.1
		c1.2,1.9-0.3,4.4-2.6,4.4H179.4C174.9,684.2,172.2,680.5,175,677.9z"/>
	<path id="XMLID_13_" class="st1" d="M377,354.2c-1.9-19.5-11.5-68.8-22.3-103.3c-17.2-55.1-37.4-69.5-49.1-71
		c-1.2-0.2-3.8-0.2-3.8-0.2s-2.5,0-3.8,0.2c-11.7,1.4-31.8,15.7-49.1,70.9c-10.8,34.5-20.3,83.9-22.3,103.5
		c-4.3,44,16.8,68.3,44.2,71.8c7.8,1,23.2,1,31,1c7.7,0,23.1,0,31-1C360.1,422.5,381.3,398.2,377,354.2z"/>
	<path id="XMLID_11_" class="st1" d="M303.8,179.5c0,0,34.9-7.4,44.5-2.9c9.9,4.6,27.8,39.7,20.4,53.4
		C357.4,251,324.2,175,303.8,179.5z"/>
	<path id="XMLID_12_" class="st1" d="M238.3,185.8l48.3-1.4c0,0-44.8,48.2-65.5,58.6S221.6,185.7,238.3,185.8z"/>
	<ellipse id="XMLID_6_" class="st0" cx="324.9" cy="287.5" rx="5" ry="6.5"/>
	<line id="XMLID_57_" class="st1" x1="126.3" y1="684.2" x2="473" y2="684.2"/>
	<path id="XMLID_128_" class="st0" d="M402.2,247c0,5.6-1.4,8.9-7,8.9s-10.1-2.1-10.1-7.7s4.5-10.1,10.1-10.1S402.2,241.4,402.2,247
		z"/>
	<path class="st1" d="M309.4,679.8c7.1-11,25.2-19.3,49.6-21.1c7.1-0.5,14.3-0.5,21.3,0.1c0.9-8.9-0.5-18.6-1-26.8
		c-1.1-16.6-44.3-196.8-56-205.8h-21.1h-21.7c-11.7,9-55,189.1-56,205.8c-0.5,8.2-1.9,18.1-0.9,27.1c7.9-0.8,16.2-1,24.3-0.4
		c24.4,1.8,42.5,10.1,49.6,21.1c1.2,1.9-0.3,4.4-2.6,4.4h7.3h9.8C309.7,684.2,308.2,681.7,309.4,679.8z"/>
	<path class="st1" d="M380.2,658.8c3.7,0.3,7.4,0.8,11,1.4c37-14.9,63.1-51.4,63.1-94c0.1-9-1.1-17.6-3.3-25.9
		c0.2,2.7,0.3,5.4,0.3,8.1c0,45.6-29.9,84.1-71,96.9C380.6,649.7,380.7,654.3,380.2,658.8z"/>
</g>
<g id="XMLID_52_">

		<ellipse id="XMLID_39_" transform="matrix(0.6174 -0.7866 0.7866 0.6174 -278.62 343.6482)" class="st2" cx="214" cy="458.3" rx="6.6" ry="7.8"/>
</g>
<g id="XMLID_51_">
	<g>
		<path class="st0" d="M144.5,525.6c-3.2-3.5-6.7-6.8-10.3-9.7c-2.6-4-4.2-7.8-5-11.5c-1.9-9.2,1-17.8,3.8-26.5
			c1.4-4.3,2.7-8.7,3.4-13.2c3.8-22.6-18.2-36.6-30.2-52.6c-5-7-3-16-1-24c4-19-11-35-28.9-34l-0.5,0.1c-28.6-2-29.6,31-24.6,53
			c2,12-11,19-16.9,28.2c-2.5,4-4.8,8.7-6,14.7C25,466,34.4,479.5,35.9,494c0.4,3.6,0.3,7.3-0.6,11.1c-1.1,4.1-3.1,8.1-5.1,12.1
			c-16,18-42,39-24,63c3.3,4.2,6.9,7.9,10.8,11.2c17.7,15.2,40.4,21.1,63.3,20.3c0.1-33.3-5-73.8-7.1-90.1c-0.6-5.1-0.9-7.4-1-8.3
			c-0.7-24.8,0.9-45.4,5.1-65c0.3-1.6,1.9-2.7,3.6-2.3c1.6,0.3,2.7,1.9,2.3,3.6c-4.1,19.1-5.6,39.3-4.9,63.6c0,0.7,0.4,3.8,0.9,7.8
			c0.8,6.3,1.9,15.1,3,25.4l10.5-15.2c0.9-1.4,2.8-1.7,4.2-0.8c1.4,0.9,1.7,2.8,0.8,4.2l-14.5,20.9c1.7,17.4,3.2,37.6,3.2,56
			c15.6-1.3,31-5.6,44.8-12.2c13-7,26-17,29-32C162.2,551.2,155.2,536.2,144.5,525.6z"/>
		<path class="st0" d="M77.5,645.3c0,0.2-0.1,0.4-0.1,0.6c-0.2,5.6-0.2,8.9-0.2,9c0,1.7,1.3,3,3,3s3-1.3,3-3c0,0,0-3.2,0.2-8.5
			c2.1-9.5,2.9-21.8,3-35c-2,0.2-4,0.3-6,0.4C80.3,624.6,79.5,636.4,77.5,645.3z"/>
	</g>
	<path id="XMLID_32_" class="st0" d="M104.2,687.2h-46c-0.6,0-1.1-0.4-1.2-1l-11.8-49.8h72l-11.8,49.9
		C105.3,686.8,104.8,687.2,104.2,687.2z"/>
</g>
<line id="XMLID_23_" class="st1" x1="237.4" y1="673" x2="237.4" y2="684"/>
<ellipse id="XMLID_69_" class="st0" cx="10.7" cy="489.2" rx="10.7" ry="17.4"/>
<rect id="XMLID_119_" x="459.1" y="283" transform="matrix(0.7071 -0.7071 0.7071 0.7071 -67.5091 412.0472)" class="st0" width="9" height="9"/>
<g id="XMLID_91_">
	<line id="XMLID_93_" class="st3" x1="587.1" y1="217.4" x2="587.1" y2="227.3"/>
	<line id="XMLID_92_" class="st3" x1="587.1" y1="239.9" x2="587.1" y2="249.9"/>
</g>
<g id="XMLID_88_">
	<line id="XMLID_90_" class="st3" x1="573.1" y1="225.5" x2="581.7" y2="230.5"/>
	<line id="XMLID_89_" class="st3" x1="592.6" y1="236.8" x2="601.2" y2="241.7"/>
</g>
<g id="XMLID_85_">
	<line id="XMLID_87_" class="st3" x1="573.1" y1="241.7" x2="581.7" y2="236.8"/>
	<line id="XMLID_86_" class="st3" x1="592.6" y1="230.5" x2="601.2" y2="225.5"/>
</g>
<g>
	<path class="st0" d="M517.8,369c0.4-0.7,1.3-1,2-0.6l4.4,2.5c0.8-1.9,1.3-4,1.3-6.1c0-2.2-0.5-4.3-1.3-6.2l-4.4,2.5
		c-0.2,0.1-0.5,0.2-0.7,0.2c-0.5,0-1-0.3-1.3-0.8c-0.4-0.7-0.2-1.6,0.6-2l4.4-2.5c-2.5-3.4-6.3-5.8-10.7-6.2v5.1
		c0,0.8-0.7,1.5-1.5,1.5s-1.5-0.7-1.5-1.5v-5.1c-4.4,0.4-8.2,2.8-10.7,6.2l4.5,2.5c0.7,0.4,1,1.3,0.6,2c-0.3,0.5-0.8,0.8-1.3,0.8
		c-0.3,0-0.5-0.1-0.7-0.2l-4.5-2.6c-0.9,1.9-1.4,4-1.4,6.3s0.5,4.5,1.4,6.4l4.3-2.8c0.7-0.4,1.6-0.2,2.1,0.5
		c0.4,0.7,0.2,1.6-0.5,2.1l-4.4,2.8c2.5,3.3,6.3,5.6,10.6,6v-5.2c0-0.8,0.7-1.5,1.5-1.5s1.5,0.7,1.5,1.5v5.2
		c4.5-0.4,8.3-2.8,10.8-6.3l-4.4-2.5C517.7,370.6,517.4,369.7,517.8,369z"/>
	<path class="st0" d="M512,349.8v-7c0-0.8-0.7-1.5-1.5-1.5s-1.5,0.7-1.5,1.5v7c0.5,0,1-0.1,1.5-0.1S511.5,349.7,512,349.8z"/>
	<path class="st0" d="M509,379.8v6.9c0,0.8,0.7,1.5,1.5,1.5s1.5-0.7,1.5-1.5v-6.9c-0.5,0-1,0.1-1.5,0.1S509.5,379.9,509,379.8z"/>
	<path class="st0" d="M492.3,352.5c-0.7-0.4-1.6-0.2-2,0.6c-0.4,0.7-0.2,1.6,0.6,2l6,3.4c0.4-0.9,0.9-1.8,1.5-2.6L492.3,352.5z"/>
	<path class="st0" d="M530.4,374.4l-6.1-3.5c-0.4,0.9-0.9,1.8-1.5,2.6l6.1,3.5c0.2,0.1,0.5,0.2,0.7,0.2c0.5,0,1-0.3,1.3-0.8
		C531.3,375.7,531.1,374.8,530.4,374.4z"/>
	<path class="st0" d="M490.7,375.1c-0.7,0.4-0.9,1.4-0.5,2.1c0.3,0.4,0.8,0.7,1.3,0.7c0.3,0,0.6-0.1,0.8-0.2l6.1-3.9
		c-0.6-0.8-1.1-1.7-1.5-2.6L490.7,375.1z"/>
	<path class="st0" d="M530.4,355.1c0.7-0.4,1-1.3,0.6-2s-1.3-1-2-0.6l-6.1,3.5c0.6,0.8,1.1,1.7,1.5,2.6L530.4,355.1z"/>
</g>
<line id="XMLID_106_" class="st4" x1="284.5" y1="40.9" x2="284.5" y2="55.6"/>
<line id="XMLID_105_" class="st4" x1="291.8" y1="48.2" x2="277.2" y2="48.2"/>
<line id="XMLID_110_" class="st4" x1="623.7" y1="555.1" x2="623.7" y2="569.8"/>
<line id="XMLID_109_" class="st4" x1="631" y1="562.5" x2="616.3" y2="562.5"/>
<line id="XMLID_107_" class="st4" x1="109.2" y1="296" x2="109.2" y2="305"/>
<line id="XMLID_63_" class="st4" x1="113.7" y1="300.5" x2="104.7" y2="300.5"/>
<line id="XMLID_117_" class="st4" x1="418.2" y1="455.1" x2="444.5" y2="455.1"/>
<line id="XMLID_116_" class="st4" x1="453.5" y1="455.1" x2="463.6" y2="455.1"/>
<line id="XMLID_115_" class="st4" x1="432.8" y1="465.8" x2="462.1" y2="465.8"/>
<line id="XMLID_66_" class="st1" x1="499" y1="684.2" x2="540.3" y2="684.2"/>
<path id="XMLID_125_" class="st0" d="M432.8,227.6c0,7.8-2,12.5-9.8,12.5s-14.2-3-14.2-10.8s4.1-14.8,12-14.8
	C428.7,214.5,432.8,219.8,432.8,227.6z"/>
<path id="XMLID_130_" class="st0" d="M460.9,188.7c0,11.8-2.9,18.8-14.7,18.8S425,203,425,191.2s9.5-21.3,21.3-21.3
	S460.9,177,460.9,188.7z"/>
<path class="st0" d="M605.1,70.2c0-26.1-21.1-47.2-47.2-47.2c-9.1,0-17.6,2.6-24.8,7C524.9,12.3,507,0,486.2,0
	c-24.9,0-45.7,17.6-50.6,41c-0.4,0-0.7,0-1.1,0c-28.6,0-51.7,23.1-51.7,51.7c0,28.6,23.1,51.7,51.7,51.7c1.8,0,3.5-0.1,5.2-0.3
	c8.3,17.4,26,29.4,46.5,29.4c16.6,0,31.4-7.9,40.9-20.2c4.3,1.9,9,3,13.9,3c18.9,0,34.3-15.4,34.3-34.3c0-2.6-0.3-5.1-0.9-7.6
	C592.4,107.7,605.1,90.4,605.1,70.2z M538.7,91.8c1.4,1.6,2.2,3.6,2.2,5.9c0,5.5-6.7,8.4-9.9,7.8c-1.8-0.4-6.5-1.1-7.8-4.1
	c-0.6-1.3-0.8-2.6-0.8-3.8c0-1.2-1-2.3-2.3-2.3h-45.5c-1.3,0-2.3,1.1-2.3,2.4c0,5.4-5.2,8-10.2,7.4c-3.8-0.4-7.8-2.2-8.3-6.4
	c-0.3-2.7,0.6-5.2,2.1-7c0.9-1.1,0.9-2.7,0-3.8c-1.4-1.6-2.2-3.6-2.2-5.9c0-5.5,5.3-8,10.3-7.4c2.9,0.3,6.2,0.7,7.5,3.7
	c0.6,1.3,0.8,2.6,0.8,3.8s1,2.3,2.3,2.3h45.5c1.3,0,2.3-1.1,2.3-2.4c0-5.5,6.7-8.4,9.9-7.8c2.4,0.5,8.1,2.6,8.6,6.8
	c0.3,2.7-0.6,5.2-2.1,7C537.9,89.1,537.9,90.7,538.7,91.8z"/>
</svg>
